<?xml version="1.0" standalone="no"?>
<!DOCTYPE svg PUBLIC "-//W3C//DTD SVG 20010904//EN"
 "http://www.w3.org/TR/2001/REC-SVG-20010904/DTD/svg10.dtd">
<svg version="1.0" xmlns="http://www.w3.org/2000/svg"
 width="64.000000pt" height="64.000000pt" viewBox="0 0 64.000000 64.000000"
 preserveAspectRatio="xMidYMid meet">
<metadata>
Created by potrace 1.16, written by Peter Selinger 2001-2019
</metadata>
<g transform="translate(0.000000,64.000000) scale(0.100000,-0.100000)"
fill="#000000" stroke="none">
<path d="M280 568 c-42 -26 -60 -45 -83 -88 l-28 -55 -82 -5 -82 -5 -3 -36
c-3 -30 2 -41 24 -58 38 -30 68 -26 169 17 l88 38 136 -17 c75 -10 153 -21
174 -24 l37 -5 0 50 c0 131 -92 219 -230 220 -57 0 -73 -5 -120 -32z m183 -16
c26 -29 47 -88 47 -133 l0 -42 -37 6 c-21 4 -68 9 -105 13 -44 4 -68 11 -68
19 0 25 31 85 61 120 35 40 75 47 102 17z m-151 -24 c-11 -18 -26 -52 -33 -75
-12 -43 -29 -52 -58 -34 -28 18 23 96 84 129 29 16 29 15 7 -20z m269 -59 c4
-9 12 -35 18 -58 l9 -41 -33 0 -32 0 -6 63 c-3 34 -8 71 -13 82 -6 17 -4 17
20 -5 15 -14 32 -32 37 -41z m-416 -109 c-33 -16 -70 -29 -82 -29 -24 -1 -53
23 -53 45 0 11 19 14 98 13 l97 -1 -60 -28z"/>
<path d="M52 182 c-25 -23 -32 -37 -32 -65 0 -29 4 -37 18 -37 9 0 23 -9 30
-20 12 -19 21 -20 120 -18 l107 3 10 33 c12 42 38 42 50 -1 l10 -32 105 -3
c92 -2 107 -1 120 16 8 10 23 21 33 25 12 5 17 18 17 47 0 34 -4 42 -24 50
-13 5 -27 14 -31 19 -10 17 -197 14 -221 -4 -25 -19 -48 -19 -64 0 -10 12 -36
15 -114 15 -98 0 -104 -1 -134 -28z m226 -50 c5 -62 -8 -72 -92 -72 -39 0 -76
4 -82 8 -13 8 -27 89 -18 103 3 6 45 8 97 7 l92 -3 3 -43z m192 36 c0 -14 69
-88 82 -88 18 0 6 28 -27 60 -19 18 -33 36 -30 38 2 3 16 -10 30 -27 15 -17
31 -31 36 -31 15 0 10 22 -8 43 -17 19 -17 19 2 15 17 -3 20 -11 17 -53 -1
-27 -8 -53 -15 -57 -18 -11 -135 -10 -158 2 -14 8 -19 21 -19 54 0 23 3 46 7
49 12 12 83 8 83 -5z m-127 -25 c-7 -2 -19 -2 -25 0 -7 3 -2 5 12 5 14 0 19
-2 13 -5z m268 -26 c-10 -9 -11 -8 -5 6 3 10 9 15 12 12 3 -3 0 -11 -7 -18z"/>
</g>
</svg>
