<?xml version="1.0" standalone="no"?>
<!DOCTYPE svg PUBLIC "-//W3C//DTD SVG 20010904//EN"
 "http://www.w3.org/TR/2001/REC-SVG-20010904/DTD/svg10.dtd">
<svg version="1.0" xmlns="http://www.w3.org/2000/svg"
 width="64.000000pt" height="64.000000pt" viewBox="0 0 64.000000 64.000000"
 preserveAspectRatio="xMidYMid meet">
<metadata>
Created by potrace 1.16, written by Peter Selinger 2001-2019
</metadata>
<g transform="translate(0.000000,64.000000) scale(0.100000,-0.100000)"
fill="#000000" stroke="none">
<path d="M56 625 c-24 -18 -56 -66 -56 -83 0 -7 16 -22 35 -33 l35 -21 0 -79
c0 -71 -2 -79 -19 -79 -50 0 -51 -2 -51 -171 l0 -159 35 0 c19 0 35 5 35 10 0
6 -11 10 -25 10 l-25 0 0 140 0 140 40 0 40 0 0 -56 c0 -54 1 -56 23 -49 28 9
46 9 75 0 21 -7 22 -5 22 49 l0 56 35 0 35 0 0 -140 0 -140 -105 0 c-63 0
-105 -4 -105 -10 0 -6 47 -10 120 -10 l120 0 0 40 0 40 115 0 115 0 1 28 c0
27 1 27 11 5 12 -24 19 -26 56 -17 18 5 22 13 22 43 0 42 -25 164 -41 204 -12
28 -46 40 -35 12 14 -38 35 -123 38 -155 2 -25 -1 -35 -13 -38 -24 -5 -32 22
-38 126 -5 70 -3 92 7 92 6 0 12 6 12 14 0 17 -46 56 -66 56 -8 0 -14 9 -14
20 0 24 -29 33 -91 28 -34 -2 -46 -8 -54 -25 -12 -28 -35 -30 -35 -3 0 11 12
26 29 35 36 18 42 33 25 67 -30 60 -122 91 -154 53 -7 -8 -19 -15 -27 -15 -7
0 -16 7 -19 15 -8 20 -82 20 -108 0z m89 -25 c24 -26 70 -26 88 1 14 19 17 19
50 5 42 -17 65 -52 47 -70 -8 -8 -14 -7 -21 7 -19 33 -29 17 -29 -48 0 -52 -5
-71 -25 -101 -14 -20 -25 -43 -25 -50 0 -10 -17 -14 -65 -14 l-65 0 0 109 c0
106 -9 139 -28 105 -10 -18 -32 -11 -32 10 0 20 51 61 81 65 3 1 14 -8 24 -19z
m235 -210 c0 -27 -3 -30 -30 -30 -32 0 -33 2 -24 38 4 15 14 22 30 22 20 0 24
-5 24 -30z m37 -202 c-1 -46 -3 -11 -3 77 0 88 2 125 3 83 2 -42 2 -114 0
-160z m83 225 c0 -5 3 -18 6 -30 6 -20 3 -23 -25 -23 -28 0 -31 3 -31 30 0 25
4 30 25 30 14 0 25 -3 25 -7z m-217 -55 c-3 -16 -9 -28 -14 -28 -12 0 -11 4 3
35 14 31 18 29 11 -7z m97 -53 c0 -21 -5 -25 -29 -25 -23 0 -30 5 -33 25 -5
23 -2 25 28 25 30 0 34 -3 34 -25z m140 0 c0 -22 -4 -25 -35 -25 -31 0 -35 3
-35 25 0 22 4 25 35 25 31 0 35 -3 35 -25z m-330 -37 c0 -30 -3 -33 -30 -33
-27 0 -30 3 -30 33 0 29 3 32 30 32 27 0 30 -3 30 -32z m190 -48 c0 -27 -3
-30 -30 -30 -27 0 -30 3 -30 30 0 27 3 30 30 30 27 0 30 -3 30 -30z m140 0 c0
-28 -3 -30 -35 -30 -32 0 -35 2 -35 30 0 28 3 30 35 30 32 0 35 -2 35 -30z
m-140 -80 c0 -27 -3 -30 -30 -30 -27 0 -30 3 -30 30 0 27 3 30 30 30 27 0 30
-3 30 -30z m140 0 c0 -28 -3 -30 -35 -30 -32 0 -35 2 -35 30 0 28 3 30 35 30
32 0 35 -2 35 -30z"/>
</g>
</svg>
