<?xml version="1.0" standalone="no"?>
<!DOCTYPE svg PUBLIC "-//W3C//DTD SVG 20010904//EN"
 "http://www.w3.org/TR/2001/REC-SVG-20010904/DTD/svg10.dtd">
<svg version="1.0" xmlns="http://www.w3.org/2000/svg"
 width="64.000000pt" height="64.000000pt" viewBox="0 0 64.000000 64.000000"
 preserveAspectRatio="xMidYMid meet">
<metadata>
Created by potrace 1.16, written by Peter Selinger 2001-2019
</metadata>
<g transform="translate(0.000000,64.000000) scale(0.100000,-0.100000)"
fill="#000000" stroke="none">
<path d="M182 575 c-13 -48 -17 -466 -6 -524 6 -30 9 -31 55 -31 42 0 49 3 49
19 0 11 4 22 9 25 5 3 12 46 16 96 4 49 11 90 15 90 4 0 11 -41 15 -90 4 -50
11 -93 16 -96 5 -3 9 -14 9 -25 0 -16 7 -19 49 -19 46 0 49 1 55 31 11 58 7
476 -6 524 l-12 45 -126 0 -126 0 -12 -45z m248 15 c0 -6 -43 -10 -110 -10
-67 0 -110 4 -110 10 0 6 43 10 110 10 67 0 110 -4 110 -10z m6 -47 c4 -10 10
-118 12 -240 l4 -223 -39 0 -40 0 -12 118 c-7 64 -15 134 -18 155 -5 32 -3 36
11 31 15 -6 17 -2 14 22 -3 27 -6 29 -48 29 -42 0 -45 -2 -48 -29 -3 -24 -1
-28 14 -22 14 5 16 1 11 -31 -3 -21 -11 -91 -18 -155 l-12 -118 -40 0 -39 0 4
223 c2 122 8 230 12 240 7 15 23 17 116 17 93 0 109 -2 116 -17z m-176 -493
c0 -5 -13 -10 -30 -10 -16 0 -30 5 -30 10 0 6 14 10 30 10 17 0 30 -4 30 -10z
m180 0 c0 -5 -13 -10 -30 -10 -16 0 -30 5 -30 10 0 6 14 10 30 10 17 0 30 -4
30 -10z"/>
</g>
</svg>
