<?xml version="1.0" standalone="no"?>
<!DOCTYPE svg PUBLIC "-//W3C//DTD SVG 20010904//EN"
 "http://www.w3.org/TR/2001/REC-SVG-20010904/DTD/svg10.dtd">
<svg version="1.0" xmlns="http://www.w3.org/2000/svg"
 width="64.000000pt" height="64.000000pt" viewBox="0 0 64.000000 64.000000"
 preserveAspectRatio="xMidYMid meet">
<metadata>
Created by potrace 1.16, written by Peter Selinger 2001-2019
</metadata>
<g transform="translate(0.000000,64.000000) scale(0.100000,-0.100000)"
fill="#000000" stroke="none">
<path d="M173 594 c-43 -16 -173 -126 -173 -148 0 -6 22 -34 50 -61 l49 -49 3
-150 3 -151 215 0 215 0 3 151 3 150 49 49 c28 27 50 55 50 61 0 23 -133 133
-179 149 -60 20 -81 19 -81 -3 0 -26 -31 -52 -62 -52 -28 0 -58 28 -58 53 0
21 -29 21 -87 1z m80 -59 c22 -22 45 -35 61 -35 26 0 76 19 76 29 0 3 7 14 15
25 13 17 17 17 47 5 18 -7 59 -36 90 -63 l58 -50 -28 -29 -27 -28 -5 23 c-3
13 -14 24 -23 26 -16 3 -17 -13 -17 -187 l0 -191 -180 0 -180 0 0 191 c0 174
-1 190 -17 187 -9 -2 -20 -13 -23 -26 l-5 -23 -28 29 -28 29 57 49 c50 43 94
70 116 73 3 1 22 -15 41 -34z"/>
</g>
</svg>
